<?xml version="1.0" encoding="UTF-8" standalone="no"?>
<!DOCTYPE svg PUBLIC "-//W3C//DTD SVG 1.1//EN" "http://www.w3.org/Graphics/SVG/1.1/DTD/svg11.dtd">
<!-- Generated by graphviz version 2.40.1 (20161225.0304)
 -->
<!-- Title: G Pages: 1 -->
<svg width="271pt" height="222pt" viewBox="0.00 0.00 270.69 221.60" xmlns="http://www.w3.org/2000/svg" xmlns:xlink="http://www.w3.org/1999/xlink">
<g id="graph0" class="graph" transform="scale(1 1) rotate(0) translate(4 217.6)">
<title>G</title>
<polygon fill="#ffffff" stroke="transparent" points="-4,4 -4,-217.6 266.6903,-217.6 266.6903,4 -4,4"/>
<!-- Scope0 -->
<g id="node1" class="node">
<title>Scope0</title>
<ellipse fill="none" stroke="#000000" cx="100.4637" cy="-195.6" rx="39.4273" ry="18"/>
<text text-anchor="middle" x="100.4637" y="-191.4" font-family="Times,serif" font-size="14.00" fill="#000000">Scope0</text>
</g>
<!-- Scope1 -->
<g id="node2" class="node">
<title>Scope1</title>
<ellipse fill="none" stroke="#000000" cx="39.4637" cy="-106.8" rx="39.4273" ry="18"/>
<text text-anchor="middle" x="39.4637" y="-102.6" font-family="Times,serif" font-size="14.00" fill="#000000">Scope1</text>
</g>
<!-- Scope0&#45;&gt;Scope1 -->
<g id="edge1" class="edge">
<title>Scope0-&gt;Scope1</title>
<path fill="none" stroke="#000000" d="M67.3887,-185.4776C55.0563,-179.9165 42.3379,-171.6297 35.2371,-159.6 30.8503,-152.1683 30.2476,-143.0899 31.2443,-134.5709"/>
<polygon fill="#000000" stroke="#000000" points="34.7101,-135.0779 33.1063,-124.6052 27.8291,-133.7922 34.7101,-135.0779"/>
<text text-anchor="middle" x="90.077" y="-147" font-family="Times,serif" font-size="14.00" fill="#000000">expr [KEYWORD]</text>
</g>
<!-- Scope3 -->
<g id="node3" class="node">
<title>Scope3</title>
<ellipse fill="none" stroke="#000000" cx="164.4637" cy="-106.8" rx="39.4273" ry="18"/>
<text text-anchor="middle" x="164.4637" y="-102.6" font-family="Times,serif" font-size="14.00" fill="#000000">Scope3</text>
</g>
<!-- Scope0&#45;&gt;Scope3 -->
<g id="edge2" class="edge">
<title>Scope0-&gt;Scope3</title>
<path fill="none" stroke="#000000" d="M123.1467,-180.7138C130.7256,-174.8582 138.7002,-167.6123 144.4637,-159.6 149.812,-152.1648 153.9205,-143.1232 156.9817,-134.6384"/>
<polygon fill="#000000" stroke="#000000" points="160.3313,-135.6558 160.1058,-125.0634 153.6766,-133.4845 160.3313,-135.6558"/>
<text text-anchor="middle" x="208.077" y="-147" font-family="Times,serif" font-size="14.00" fill="#000000">expr [KEYWORD]</text>
</g>
<!-- Scope5 -->
<g id="node4" class="node">
<title>Scope5</title>
<ellipse fill="none" stroke="#000000" cx="105.4637" cy="-18" rx="39.4273" ry="18"/>
<text text-anchor="middle" x="105.4637" y="-13.8" font-family="Times,serif" font-size="14.00" fill="#000000">Scope5</text>
</g>
<!-- Scope1&#45;&gt;Scope5 -->
<g id="edge3" class="edge">
<title>Scope1-&gt;Scope5</title>
<path fill="none" stroke="#000000" d="M38.972,-88.3278C39.5222,-77.5159 41.7312,-64.0573 48.4363,-54 53.291,-46.718 60.1728,-40.6192 67.484,-35.6335"/>
<polygon fill="#000000" stroke="#000000" points="69.4869,-38.5106 76.1681,-30.2879 65.8174,-32.5495 69.4869,-38.5106"/>
<text text-anchor="middle" x="92.9774" y="-58.2" font-family="Times,serif" font-size="14.00" fill="#000000">Double [TYPE]</text>
</g>
<!-- Scope3&#45;&gt;Scope5 -->
<g id="edge4" class="edge">
<title>Scope3-&gt;Scope5</title>
<path fill="none" stroke="#000000" d="M158.5522,-88.8252C154.5994,-78.1896 148.7827,-64.7417 141.4637,-54 138.4915,-49.6379 134.9469,-45.3519 131.2588,-41.3439"/>
<polygon fill="#000000" stroke="#000000" points="133.5983,-38.7304 124.1022,-34.032 128.5957,-43.6267 133.5983,-38.7304"/>
<text text-anchor="middle" x="188.9781" y="-58.2" font-family="Times,serif" font-size="14.00" fill="#000000">Expr [TYPE]</text>
</g>
</g>
</svg>