<?xml version="1.0" encoding="UTF-8" standalone="no"?>
<!DOCTYPE svg PUBLIC "-//W3C//DTD SVG 1.1//EN" "http://www.w3.org/Graphics/SVG/1.1/DTD/svg11.dtd">
<!-- Generated by graphviz version 2.40.1 (20161225.0304)
 -->
<!-- Title: G Pages: 1 -->
<svg width="296pt" height="310pt" viewBox="0.00 0.00 295.80 310.40" xmlns="http://www.w3.org/2000/svg" xmlns:xlink="http://www.w3.org/1999/xlink">
<g id="graph0" class="graph" transform="scale(1 1) rotate(0) translate(4 306.4)">
<title>G</title>
<polygon fill="#ffffff" stroke="transparent" points="-4,4 -4,-306.4 291.8033,-306.4 291.8033,4 -4,4"/>
<!-- Scope0 -->
<g id="node1" class="node">
<title>Scope0</title>
<ellipse fill="none" stroke="#000000" cx="39.4637" cy="-284.4" rx="39.4273" ry="18"/>
<text text-anchor="middle" x="39.4637" y="-280.2" font-family="Times,serif" font-size="14.00" fill="#000000">Scope0</text>
</g>
<!-- Scope1 -->
<g id="node2" class="node">
<title>Scope1</title>
<ellipse fill="none" stroke="#000000" cx="39.4637" cy="-195.6" rx="39.4273" ry="18"/>
<text text-anchor="middle" x="39.4637" y="-191.4" font-family="Times,serif" font-size="14.00" fill="#000000">Scope1</text>
</g>
<!-- Scope0&#45;&gt;Scope1 -->
<g id="edge1" class="edge">
<title>Scope0-&gt;Scope1</title>
<path fill="none" stroke="#000000" d="M39.4637,-266.0006C39.4637,-253.8949 39.4637,-237.8076 39.4637,-224.0674"/>
<polygon fill="#000000" stroke="#000000" points="42.9638,-223.672 39.4637,-213.672 35.9638,-223.6721 42.9638,-223.672"/>
<text text-anchor="middle" x="108.8582" y="-235.8" font-family="Times,serif" font-size="14.00" fill="#000000">lhs [NON_TERMINAL]</text>
</g>
<!-- Scope3 -->
<g id="node4" class="node">
<title>Scope3</title>
<ellipse fill="none" stroke="#000000" cx="39.4637" cy="-106.8" rx="39.4273" ry="18"/>
<text text-anchor="middle" x="39.4637" y="-102.6" font-family="Times,serif" font-size="14.00" fill="#000000">Scope3</text>
</g>
<!-- Scope1&#45;&gt;Scope3 -->
<g id="edge3" class="edge">
<title>Scope1-&gt;Scope3</title>
<path fill="none" stroke="#000000" d="M39.4637,-177.2006C39.4637,-165.0949 39.4637,-149.0076 39.4637,-135.2674"/>
<polygon fill="#000000" stroke="#000000" points="42.9638,-134.872 39.4637,-124.872 35.9638,-134.8721 42.9638,-134.872"/>
<text text-anchor="middle" x="78.3438" y="-147" font-family="Times,serif" font-size="14.00" fill="#000000">OptionalEdge</text>
</g>
<!-- Scope2 -->
<g id="node3" class="node">
<title>Scope2</title>
<ellipse fill="none" stroke="#000000" cx="39.4637" cy="-18" rx="39.4273" ry="18"/>
<text text-anchor="middle" x="39.4637" y="-13.8" font-family="Times,serif" font-size="14.00" fill="#000000">Scope2</text>
</g>
<!-- Scope3&#45;&gt;Scope2 -->
<g id="edge4" class="edge">
<title>Scope3-&gt;Scope2</title>
<path fill="none" stroke="#000000" d="M39.4637,-88.4006C39.4637,-76.2949 39.4637,-60.2076 39.4637,-46.4674"/>
<polygon fill="#000000" stroke="#000000" points="42.9638,-46.072 39.4637,-36.072 35.9638,-46.0721 42.9638,-46.072"/>
<text text-anchor="middle" x="78.3438" y="-58.2" font-family="Times,serif" font-size="14.00" fill="#000000">OptionalEdge</text>
</g>
<!-- Scope3&#45;&gt;Scope3 -->
<g id="edge2" class="edge">
<title>Scope3-&gt;Scope3</title>
<path fill="none" stroke="#000000" d="M74.8155,-115.048C87.0484,-115.1353 96.9273,-112.3859 96.9273,-106.8 96.9273,-102.8724 92.0433,-100.3472 84.8912,-99.2243"/>
<polygon fill="#000000" stroke="#000000" points="85.0264,-95.7256 74.8155,-98.552 84.5603,-102.7101 85.0264,-95.7256"/>
<text text-anchor="middle" x="192.3653" y="-102.6" font-family="Times,serif" font-size="14.00" fill="#000000">operatorRhs [NON_TERMINAL]</text>
</g>
</g>
</svg>