<?xml version="1.0" encoding="UTF-8" standalone="no"?>
<!DOCTYPE svg PUBLIC "-//W3C//DTD SVG 1.1//EN" "http://www.w3.org/Graphics/SVG/1.1/DTD/svg11.dtd">
<!-- Generated by graphviz version 2.40.1 (20161225.0304)
 -->
<!-- Title: G Pages: 1 -->
<svg width="752pt" height="133pt" viewBox="0.00 0.00 752.21 132.80" xmlns="http://www.w3.org/2000/svg" xmlns:xlink="http://www.w3.org/1999/xlink">
<g id="graph0" class="graph" transform="scale(1 1) rotate(0) translate(4 128.8)">
<title>G</title>
<polygon fill="#ffffff" stroke="transparent" points="-4,4 -4,-128.8 748.2068,-128.8 748.2068,4 -4,4"/>
<!-- Scope0 -->
<g id="node1" class="node">
<title>Scope0</title>
<ellipse fill="none" stroke="#000000" cx="311.6366" cy="-106.8" rx="39.4273" ry="18"/>
<text text-anchor="middle" x="311.6366" y="-102.6" font-family="Times,serif" font-size="14.00" fill="#000000">Scope0</text>
</g>
<!-- Scope5 -->
<g id="node2" class="node">
<title>Scope5</title>
<ellipse fill="none" stroke="#000000" cx="311.6366" cy="-18" rx="39.4273" ry="18"/>
<text text-anchor="middle" x="311.6366" y="-13.8" font-family="Times,serif" font-size="14.00" fill="#000000">Scope5</text>
</g>
<!-- Scope0&#45;&gt;Scope5 -->
<g id="edge1" class="edge">
<title>Scope0-&gt;Scope5</title>
<path fill="none" stroke="#000000" d="M272.1022,-105.0492C193.1338,-101.1455 21.9192,-90.4854 4.4058,-70.8 -30.6933,-31.348 166.2326,-21.3624 261.8491,-18.8443"/>
<polygon fill="#000000" stroke="#000000" points="261.9705,-22.3425 271.8814,-18.5978 261.7984,-15.3446 261.9705,-22.3425"/>
<text text-anchor="middle" x="97.752" y="-58.2" font-family="Times,serif" font-size="14.00" fill="#000000">dividedRhs [NON_TERMINAL]</text>
</g>
<!-- Scope0&#45;&gt;Scope5 -->
<g id="edge2" class="edge">
<title>Scope0-&gt;Scope5</title>
<path fill="none" stroke="#000000" d="M276.4786,-98.3517C251.6529,-91.5923 221.5291,-81.502 214.0706,-70.8 197.9533,-47.6736 232.1554,-33.7325 264.4082,-26.033"/>
<polygon fill="#000000" stroke="#000000" points="265.2919,-29.4222 274.2972,-23.8406 263.7767,-22.5881 265.2919,-29.4222"/>
<text text-anchor="middle" x="301.9196" y="-58.2" font-family="Times,serif" font-size="14.00" fill="#000000">timesRhs [NON_TERMINAL]</text>
</g>
<!-- Scope0&#45;&gt;Scope5 -->
<g id="edge3" class="edge">
<title>Scope0-&gt;Scope5</title>
<path fill="none" stroke="#000000" d="M347.6899,-99.0972C363.0618,-93.8362 379.5256,-85.1173 388.6366,-70.8 400.224,-52.5912 378.9259,-39.04 355.8171,-30.2274"/>
<polygon fill="#000000" stroke="#000000" points="356.8385,-26.8764 346.2437,-26.8549 354.5126,-33.4787 356.8385,-26.8764"/>
<text text-anchor="middle" x="480.867" y="-58.2" font-family="Times,serif" font-size="14.00" fill="#000000">minusRhs [NON_TERMINAL]</text>
</g>
<!-- Scope0&#45;&gt;Scope5 -->
<g id="edge4" class="edge">
<title>Scope0-&gt;Scope5</title>
<path fill="none" stroke="#000000" d="M350.9447,-104.2118C420.4759,-99.2306 559.2279,-87.3239 573.6366,-70.8 578.5438,-65.1724 578.5438,-59.6276 573.6366,-54 559.9033,-38.2507 433.2106,-26.6958 361.1589,-21.3341"/>
<polygon fill="#000000" stroke="#000000" points="361.1731,-17.8259 350.9447,-20.5882 360.6632,-24.8073 361.1731,-17.8259"/>
<text text-anchor="middle" x="660.4217" y="-58.2" font-family="Times,serif" font-size="14.00" fill="#000000">plusRhs [NON_TERMINAL]</text>
</g>
</g>
</svg>